<svg width="20" height="20" viewBox="0 0 24 24" fill="none" xmlns="http://www.w3.org/2000/svg">
<g clip-path="url(#clip0_45_3108)">
<path fill-rule="evenodd" clip-rule="evenodd" d="M5.92413 0H18.0739C18.7499 0 19.3017 0.548828 19.3017 1.2168V2.48047H4.69634V1.2168C4.69634 0.546875 5.24815 0 5.92413 0ZM2.21317 7.49609H21.7868C23.0048 7.49609 24 8.48242 24 9.68945V21.8066C24 23.0137 23.0048 24 21.7868 24H2.21317C0.995237 24 0 23.0137 0 21.8066V9.68945C0 8.48242 0.995237 7.49609 2.21317 7.49609ZM10.6638 11.4023L16.042 15.1191C16.1307 15.1758 16.2115 15.25 16.2746 15.3398C16.5269 15.7012 16.4342 16.1973 16.0696 16.4473L10.7151 20.1172C10.5771 20.2305 10.3997 20.2969 10.2046 20.2969C9.75924 20.2969 9.39859 19.9395 9.39859 19.498V12.0547H9.40253C9.40253 11.8965 9.44983 11.7383 9.54639 11.5996C9.80062 11.2383 10.3012 11.1504 10.6638 11.4023ZM3.57497 3.67383H20.4231C21.099 3.67383 21.6508 4.22266 21.6508 4.89062V6.20312H2.34718V4.89062C2.34718 4.2207 2.899 3.67383 3.57497 3.67383Z" fill=""/>
</g>
<defs>
<clipPath id="clip0_45_3108">
<rect width="24" height="24" fill="white"/>
</clipPath>
</defs>
</svg>
