<svg width="16" height="20" viewBox="0 0 16 20" fill="" xmlns="http://www.w3.org/2000/svg">
<path fill-rule="evenodd" clip-rule="evenodd" d="M10.873 13.5H5.127C4.16506 13.5 3.24252 13.8821 2.56232 14.5623C1.88213 15.2425 1.5 16.1651 1.5 17.127C1.5 17.627 1.822 17.96 2.188 18.021C3.571 18.25 5.627 18.5 8 18.5C10.373 18.5 12.429 18.25 13.812 18.02C14.178 17.96 14.5 17.626 14.5 17.127C14.5 16.1651 14.1179 15.2425 13.4377 14.5623C12.7575 13.8821 11.8349 13.5 10.873 13.5ZM5.127 12C3.76723 12 2.46316 12.5402 1.50166 13.5017C0.540164 14.4632 0 15.7672 0 17.127C0 18.295 0.79 19.31 1.943 19.5C3.385 19.74 5.525 20 8 20C10.475 20 12.615 19.74 14.057 19.5C15.209 19.31 16 18.295 16 17.127C16 15.7672 15.4598 14.4632 14.4983 13.5017C13.5368 12.5402 12.2328 12 10.873 12H5.127ZM4.5 5C4.5 5.45963 4.59053 5.91475 4.76642 6.33939C4.94231 6.76403 5.20012 7.14987 5.52513 7.47487C5.85013 7.79988 6.23597 8.05769 6.66061 8.23358C7.08525 8.40947 7.54037 8.5 8 8.5C8.45963 8.5 8.91475 8.40947 9.33939 8.23358C9.76403 8.05769 10.1499 7.79988 10.4749 7.47487C10.7999 7.14987 11.0577 6.76403 11.2336 6.33939C11.4095 5.91475 11.5 5.45963 11.5 5C11.5 4.07174 11.1313 3.1815 10.4749 2.52513C9.8185 1.86875 8.92826 1.5 8 1.5C7.07174 1.5 6.1815 1.86875 5.52513 2.52513C4.86875 3.1815 4.5 4.07174 4.5 5ZM8 0C6.67392 0 5.40215 0.526784 4.46447 1.46447C3.52678 2.40215 3 3.67392 3 5C3 6.32608 3.52678 7.59785 4.46447 8.53553C5.40215 9.47322 6.67392 10 8 10C9.32608 10 10.5979 9.47322 11.5355 8.53553C12.4732 7.59785 13 6.32608 13 5C13 3.67392 12.4732 2.40215 11.5355 1.46447C10.5979 0.526784 9.32608 0 8 0Z" fill=""/>
</svg>
