<svg width="291" height="31" viewBox="0 0 291 31" fill="none" xmlns="http://www.w3.org/2000/svg">
<path d="M9.648 25.896H17.392V31H6.216C4.28 29.1813 2.81333 26.8787 1.816 24.092C0.818667 21.3053 0.32 18.4453 0.32 15.512C0.32 12.5493 0.877333 9.704 1.992 6.976C3.10667 4.248 4.764 1.98933 6.964 0.199998H17.392V5.48H9.648C8.856 6.38933 8.16667 7.856 7.58 9.88C7.02267 11.904 6.744 13.84 6.744 15.688C6.744 17.536 7.02267 19.472 7.58 21.496C8.16667 23.52 8.856 24.9867 9.648 25.896ZM26.6478 31H20.6198V0.199998H26.6478V12.608H33.6878V0.199998H39.7158V31H33.6878V18.24H26.6478V31ZM58.2958 0.199998C60.3492 1.872 61.8745 4.116 62.8718 6.932C63.8692 9.748 64.3678 12.652 64.3678 15.644C64.3678 18.6067 63.8838 21.4227 62.9158 24.092C61.9478 26.7613 60.4078 29.064 58.2958 31H49.2318C47.1198 29.064 45.5798 26.7613 44.6118 24.092C43.6438 21.4227 43.1598 18.6067 43.1598 15.644C43.1598 12.652 43.6585 9.748 44.6558 6.932C45.6532 4.116 47.1785 1.872 49.2318 0.199998H58.2958ZM52.1798 25.896H55.3478C56.0812 25.0453 56.6972 23.6667 57.1958 21.76C57.7238 19.824 57.9878 17.7853 57.9878 15.644C57.9878 13.5027 57.7385 11.4933 57.2398 9.616C56.7412 7.70933 56.1252 6.33067 55.3918 5.48H52.1798C51.4465 6.33067 50.8158 7.70933 50.2878 9.616C49.7892 11.4933 49.5398 13.5027 49.5398 15.644C49.5398 17.7853 49.7892 19.824 50.2878 21.76C50.8158 23.6667 51.4465 25.0453 52.1798 25.896ZM82.1435 0.199998C84.1968 1.872 85.7222 4.116 86.7195 6.932C87.7168 9.748 88.2155 12.652 88.2155 15.644C88.2155 18.6067 87.7315 21.4227 86.7635 24.092C85.7955 26.7613 84.2555 29.064 82.1435 31H73.0795C70.9675 29.064 69.4275 26.7613 68.4595 24.092C67.4915 21.4227 67.0075 18.6067 67.0075 15.644C67.0075 12.652 67.5062 9.748 68.5035 6.932C69.5008 4.116 71.0262 1.872 73.0795 0.199998H82.1435ZM76.0275 25.896H79.1955C79.9288 25.0453 80.5448 23.6667 81.0435 21.76C81.5715 19.824 81.8355 17.7853 81.8355 15.644C81.8355 13.5027 81.5862 11.4933 81.0875 9.616C80.5888 7.70933 79.9728 6.33067 79.2395 5.48H76.0275C75.2942 6.33067 74.6635 7.70933 74.1355 9.616C73.6368 11.4933 73.3875 13.5027 73.3875 15.644C73.3875 17.7853 73.6368 19.824 74.1355 21.76C74.6635 23.6667 75.2942 25.0453 76.0275 25.896ZM93.8186 0.199998H104.379V5.48H95.9306L95.7986 5.744L102.839 18.592C104.276 21.1733 104.995 23.1387 104.995 24.488C104.995 27.4507 104.012 29.6213 102.047 31H90.3866V25.896H99.4946L99.6266 25.632L91.7066 11.42C90.5626 9.36667 89.9906 7.69467 89.9906 6.404C89.9906 3.35333 91.2666 1.28533 93.8186 0.199998ZM108.061 31V0.199998H123.857V5.48H114.089V12.828H122.801V17.932H114.089V25.896H124.033V31H108.061ZM175.674 0.199998H186.234V5.48H177.786L177.654 5.744L184.694 18.592C186.131 21.1733 186.85 23.1387 186.85 24.488C186.85 27.4507 185.867 29.6213 183.902 31H172.242V25.896H181.35L181.482 25.632L173.562 11.42C172.418 9.36667 171.846 7.69467 171.846 6.404C171.846 3.35333 173.122 1.28533 175.674 0.199998ZM195.857 5.48V16.48H199.773C201.386 15.16 202.193 13.224 202.193 10.672C202.193 9.58667 201.973 8.56 201.533 7.592C201.122 6.624 200.623 5.92 200.037 5.48H195.857ZM189.917 31V0.199998H201.841C203.835 1.08 205.405 2.42933 206.549 4.248C207.722 6.06667 208.309 8.19333 208.309 10.628C208.309 13.0333 207.707 15.2627 206.505 17.316C205.302 19.3693 203.527 20.8213 201.181 21.672H195.857V31H189.917ZM225.444 0.199998C227.498 1.872 229.023 4.116 230.02 6.932C231.018 9.748 231.516 12.652 231.516 15.644C231.516 18.6067 231.032 21.4227 230.064 24.092C229.096 26.7613 227.556 29.064 225.444 31H216.38C214.268 29.064 212.728 26.7613 211.76 24.092C210.792 21.4227 210.308 18.6067 210.308 15.644C210.308 12.652 210.807 9.748 211.804 6.932C212.802 4.116 214.327 1.872 216.38 0.199998H225.444ZM219.328 25.896H222.496C223.23 25.0453 223.846 23.6667 224.344 21.76C224.872 19.824 225.136 17.7853 225.136 15.644C225.136 13.5027 224.887 11.4933 224.388 9.616C223.89 7.70933 223.274 6.33067 222.54 5.48H219.328C218.595 6.33067 217.964 7.70933 217.436 9.616C216.938 11.4933 216.688 13.5027 216.688 15.644C216.688 17.7853 216.938 19.824 217.436 21.76C217.964 23.6667 218.595 25.0453 219.328 25.896ZM234.948 0.199998H246.652C248.5 0.815999 250.069 1.96 251.36 3.632C252.68 5.27466 253.34 7.29866 253.34 9.704C253.34 13.6347 251.785 16.524 248.676 18.372L253.12 31H246.96L243.22 19.78H240.888V31H234.948V0.199998ZM240.888 5.48V14.852H244.672C245.171 14.7347 245.713 14.236 246.3 13.356C246.916 12.4467 247.224 11.3907 247.224 10.188C247.224 8.98533 246.96 7.92933 246.432 7.02C245.933 6.11067 245.435 5.59733 244.936 5.48H240.888ZM261.061 5.48H254.417V0.199998H273.689V5.48H267.045V31H261.061V5.48ZM279.057 0.199998H289.617V5.48H281.169L281.037 5.744L288.077 18.592C289.514 21.1733 290.233 23.1387 290.233 24.488C290.233 27.4507 289.25 29.6213 287.285 31H275.625V25.896H284.733L284.865 25.632L276.945 11.42C275.801 9.36667 275.229 7.69467 275.229 6.404C275.229 3.35333 276.505 1.28533 279.057 0.199998Z" fill="white"/>
<path d="M138.66 16.92H138.484H138.66L140.992 7.284L142.884 0.199998H148.384L150.364 31H144.6L143.764 14.192H143.544L140.376 26.6H136.768L133.6 14.192H133.38L132.544 31H126.78L128.76 0.199998H134.26L136.152 7.284L138.484 16.92H138.66ZM153.909 31V0.199998H169.705V5.48H159.937V12.828H168.649V17.932H159.937V25.896H169.881V31H153.909Z" fill="#ABFC9D"/>
</svg>
