<svg width="183" height="284" viewBox="0 0 183 284" fill="none" xmlns="http://www.w3.org/2000/svg">
<g clip-path="url(#clip0_8_86)">
<path opacity="0.974" fill-rule="evenodd" clip-rule="evenodd" d="M64.5138 -0.420166C66.7627 -0.420166 69.0115 -0.420166 71.2604 -0.420166C76.9596 3.8787 77.5218 8.78009 72.947 14.284C79.2934 29.0319 85.7587 43.736 92.3433 58.3964C103.741 47.1804 115.266 36.1173 126.919 25.2071C123.862 18.2438 126.111 14.1826 133.666 13.0236C140.386 14.3675 142.495 18.2886 139.991 24.7869C136.98 28.1749 133.325 29.0152 129.028 27.3076C118.205 38.0907 107.382 48.8737 96.5599 59.6568C126.345 63.5882 148.974 78.2924 164.447 103.769C174.142 120.565 180.186 138.489 182.578 157.544C182.578 199.276 182.578 241.008 182.578 282.74C182.016 282.74 181.735 283.019 181.735 283.58C121.297 283.58 60.8595 283.58 0.421657 283.58C0.421657 283.019 0.140551 282.74 -0.421661 282.74C-0.421661 241.008 -0.421661 199.276 -0.421661 157.544C2.87219 125.914 16.3653 99.4462 40.0576 78.142C54.3884 66.9479 70.6926 60.6461 88.97 59.2366C82.7857 44.9526 76.6014 30.6686 70.4171 16.3846C67.8586 15.488 65.3286 14.5077 62.8272 13.4437C59.1219 8.28971 59.6841 3.66841 64.5138 -0.420166Z" fill="#5F933C"/>
<path fill-rule="evenodd" clip-rule="evenodd" d="M85.5968 65.9586C112.853 65.6052 134.919 75.9681 151.797 97.0473C165.785 115.699 173.938 136.705 176.253 160.065C176.675 199.275 176.816 238.486 176.675 277.698C119.892 277.698 63.1083 277.698 6.32489 277.698C6.18434 238.206 6.3249 198.715 6.74655 159.225C9.44609 130.748 20.8309 106.522 40.9009 86.5444C53.7344 75.108 68.633 68.246 85.5968 65.9586Z" fill=""/>
<path fill-rule="evenodd" clip-rule="evenodd" d="M91.5 122.254C92.8662 123.381 93.7095 124.921 94.03 126.876C95.7166 127.155 97.4032 127.436 99.0899 127.716C98.1799 128.519 97.1966 129.219 96.1382 129.817C95.8228 131.831 95.8228 133.792 96.1382 135.698C93.6083 132.337 91.0783 132.337 88.5484 135.698C88.0626 134.121 88.2035 132.58 88.97 131.077C87.8746 129.963 86.7504 128.842 85.5968 127.716C87.2606 127.3 88.9473 127.16 90.6567 127.296C90.9375 125.615 91.2192 123.935 91.5 122.254Z" fill="#659743"/>
<path fill-rule="evenodd" clip-rule="evenodd" d="M135.353 231.485C135.856 235.513 135.294 239.154 133.666 242.408C104.413 233.631 75.1782 233.631 45.9608 242.408C44.3331 239.154 43.7708 235.513 44.2742 231.485C47.4164 231.757 50.5086 231.476 53.5507 230.645C53.4465 230.135 53.1654 229.855 52.7074 229.805C45.2685 217.637 46.2524 206.154 55.659 195.355C63.1444 188.736 70.8748 182.434 78.8502 176.45C82.7863 172.674 85.8784 168.333 88.1267 163.426C83.7066 159.953 83.7066 156.592 88.1267 153.343C88.9566 150.883 89.2374 148.362 88.9701 145.781C80.2084 143.891 75.7106 138.43 75.477 129.396C76.7444 120.01 82.0854 114.969 91.5 114.272C82.4235 117.369 78.6286 123.671 80.1152 133.178C85.3556 143.385 93.0863 146.046 103.306 141.16C99.7856 144.594 95.569 146.135 90.6567 145.781C90.0512 149.481 91.0353 152.562 93.6083 155.024C94.5334 158.405 93.8309 161.346 91.5 163.846C93.9229 169.5 97.577 174.261 102.463 178.13C112.932 184.639 121.787 192.901 129.028 202.917C133.821 213.119 132.556 222.501 125.233 231.065C128.594 231.484 131.967 231.625 135.353 231.485Z" fill="#60933D"/>
<path fill-rule="evenodd" clip-rule="evenodd" d="M121.859 230.645C118.316 230.911 114.943 230.631 111.74 229.805C121.51 214.554 120.386 200.13 108.366 186.533C108.647 186.392 108.929 186.253 109.21 186.112C114.044 189.846 118.4 194.047 122.281 198.716C129.582 209.439 129.441 220.082 121.859 230.645Z" fill=""/>
<path fill-rule="evenodd" clip-rule="evenodd" d="M78.8502 196.195C87.4917 199.941 95.6441 204.562 103.306 210.059C95.7031 215.664 87.5516 220.145 78.8502 223.503C77.7349 214.401 77.7349 205.298 78.8502 196.195Z" fill=""/>
<path fill-rule="evenodd" clip-rule="evenodd" d="M70.417 239.047C99.9028 236.427 128.014 241.329 154.749 253.751C146.616 252.016 138.464 250.055 130.293 247.87C95.7942 241.521 61.78 243.342 28.2512 253.331C27.6889 253.191 27.1268 253.052 26.5645 252.911C40.6231 246.227 55.2406 241.606 70.417 239.047Z" fill="#629540"/>
</g>
<defs>
<clipPath id="clip0_8_86">
<rect width="183" height="284" fill="white"/>
</clipPath>
</defs>
</svg>
