<svg width="120" height="47" viewBox="0 0 120 47" fill="none" xmlns="http://www.w3.org/2000/svg">
<path d="M7.44223 21.6835L13.9713 25.7881C15.1699 26.5648 19.3508 25.7652 18.5832 22.3594L10.5999 17.1859C7.87395 14.882 12.1426 7.18347 16.1723 9.64639L23.45 13.9743C26.6493 15.1879 28.411 11.6886 27.7605 10.3186L18.85 4.5443C9.14618 -0.100175 -2.4276 14.276 7.44223 21.6835Z" fill="#3CDCBF"/>
<path d="M24.3053 17.0694L17.9293 12.7484C16.6272 11.8394 12.5522 12.5909 13.1957 16.0204L20.9862 21.4584C23.6268 23.8522 19.2885 31.0431 14.9369 28.8335L8.02728 24.2372C5.37284 22.9873 2.74014 26.2712 3.58658 27.7461L12.2819 33.8156C21.9557 38.9483 34.0685 24.7589 24.3053 17.0694Z" fill="#5FDAEB"/>
<path d="M33.9183 16.3014H37.6633C39.8333 16.3014 40.9183 17.2459 40.9183 19.135V29.0369C40.9183 30.9047 39.8333 31.8387 37.6633 31.8387H33.9183C31.7717 31.8387 30.6983 30.9047 30.6983 29.0369V19.135C30.6983 17.2459 31.7717 16.3014 33.9183 16.3014ZM37.8033 28.623V19.5171C37.8033 19.135 37.7333 18.8803 37.5933 18.753C37.4533 18.6256 37.1733 18.5619 36.7533 18.5619H34.8283C34.4083 18.5619 34.1283 18.6256 33.9883 18.753C33.8717 18.8803 33.8133 19.135 33.8133 19.5171V28.623C33.8133 29.005 33.8717 29.2597 33.9883 29.3871C34.1283 29.5144 34.4083 29.5781 34.8283 29.5781H36.7533C37.1733 29.5781 37.4533 29.5144 37.5933 29.3871C37.7333 29.2597 37.8033 29.005 37.8033 28.623ZM49.8825 12.9583H48.4125C47.9925 12.9583 47.7125 13.022 47.5725 13.1493C47.4325 13.2555 47.3625 13.4996 47.3625 13.8816V16.3014H49.8825V18.6256H47.3625V31.8387H44.2125V18.6256H42.4975V16.3014H44.2125V13.3404C44.2125 11.4725 45.2975 10.5386 47.4675 10.5386H49.8825V12.9583ZM57.3612 18.6256H55.0162V28.4638C55.0162 28.8458 55.0745 29.1005 55.1912 29.2279C55.3312 29.334 55.6112 29.3871 56.0312 29.3871H57.3612V31.8387H55.1212C52.9278 31.8387 51.8312 30.9047 51.8312 29.0369V18.6256H50.2212V16.3014H51.8312V13.6588H55.0162V16.3014H57.3612V18.6256ZM65.8225 28.5911V23.7198C65.8225 23.3377 65.7525 23.0936 65.6125 22.9875C65.4958 22.8602 65.2275 22.7965 64.8075 22.7965H62.2175C60.0942 22.7965 59.0325 21.8519 59.0325 19.9628V14.7094C59.0325 12.8416 60.1175 11.9076 62.2875 11.9076H65.7175C67.8875 11.9076 68.9725 12.8416 68.9725 14.7094V17.6386H65.7875V15.1552C65.7875 14.7731 65.7175 14.529 65.5775 14.4229C65.4375 14.2955 65.1575 14.2319 64.7375 14.2319H63.2675C62.8475 14.2319 62.5675 14.2955 62.4275 14.4229C62.2875 14.529 62.2175 14.7731 62.2175 15.1552V19.5808C62.2175 19.9628 62.2875 20.2175 62.4275 20.3449C62.5675 20.451 62.8475 20.5041 63.2675 20.5041H65.8225C67.9692 20.5041 69.0425 21.438 69.0425 23.3059V29.0369C69.0425 30.9047 67.9458 31.8387 65.7525 31.8387H62.3575C60.1875 31.8387 59.1025 30.9047 59.1025 29.0369V26.1077H62.2875V28.5911C62.2875 28.9732 62.3575 29.2279 62.4975 29.3553C62.6375 29.4614 62.9175 29.5144 63.3375 29.5144H64.8075C65.2275 29.5144 65.4958 29.4614 65.6125 29.3553C65.7525 29.2279 65.8225 28.9732 65.8225 28.5911ZM78.259 16.3014H81.409V31.8387H78.259V30.597C77.9557 31.4248 77.2323 31.8387 76.089 31.8387H74.829C72.729 31.8387 71.679 30.9047 71.679 29.0369V19.135C71.679 17.2459 72.729 16.3014 74.829 16.3014H76.089C77.2323 16.3014 77.9557 16.7153 78.259 17.5431V16.3014ZM75.879 29.5144H77.104C77.524 29.5144 77.8157 29.4295 77.979 29.2597C78.1657 29.0899 78.259 28.8034 78.259 28.4001V19.74C78.259 19.3367 78.1657 19.0501 77.979 18.8803C77.8157 18.7105 77.524 18.6256 77.104 18.6256H75.879C75.459 18.6256 75.179 18.6893 75.039 18.8166C74.899 18.9228 74.829 19.1669 74.829 19.5489V28.5911C74.829 28.9732 74.899 29.2279 75.039 29.3553C75.179 29.4614 75.459 29.5144 75.879 29.5144ZM86.2513 16.3014L88.4913 29.4189L90.7663 16.3014H93.9163L90.7663 31.8387H86.2513L83.1013 16.3014H86.2513ZM97.3597 16.3014L99.5997 29.4189L101.875 16.3014H105.025L101.875 31.8387H97.3597L94.2097 16.3014H97.3597ZM109.238 36.2324H107.138V33.94H108.573C109.576 33.94 110.183 33.5898 110.393 32.8893L110.743 31.584H109.028L105.458 16.3014H108.678L111.268 29.3234L113.683 16.3014H116.868L113.263 33.3351C112.75 35.2666 111.408 36.2324 109.238 36.2324Z" fill="#1FD2EB"/>
</svg>
