<svg width="20" height="25" viewBox="0 0 20 25" fill="none" xmlns="http://www.w3.org/2000/svg">
<path d="M4.62776 1.38022C4.69517 0.471026 5.24848 0 6.28672 0H13.4764C14.5146 0 15.0563 0.471026 15.1242 1.38022H4.62776ZM2.62978 4.3433C2.79929 3.36976 3.2847 2.83483 4.41298 2.83483H15.2596C16.3883 2.83483 16.8733 3.36976 17.0428 4.3433H2.62978ZM3.54426 25C1.19667 25 0 23.8982 0 21.6836V9.36028C0 7.15668 1.19667 6.04438 3.54426 6.04438H16.4557C18.8149 6.04438 20 7.15668 20 9.36028V21.6836C20 23.8872 18.826 25 16.7943 25H3.54426ZM13.1012 13.7027C13.5919 13.5767 13.7451 13.4799 13.7451 12.9181V11.0198C13.7451 10.652 13.6122 10.4872 13.0709 10.6132L10.0766 11.3202C9.57575 11.4365 9.46355 11.5333 9.46355 12.1047V16.4727C9.46355 16.899 9.42261 16.9766 8.91168 17.1117L7.97169 17.3444C7.0418 17.5772 6.25494 18.0998 6.25494 19.0492C6.25494 19.8721 6.90889 20.4728 7.94087 20.4728C9.40239 20.4728 10.3934 19.475 10.3934 18.0706V14.7488C10.3934 14.3905 10.4753 14.2937 10.7103 14.2449L13.1012 13.7027Z" fill=""/>
</svg>
