<svg width="50" height="38" viewBox="0 0 50 38" fill="none" xmlns="http://www.w3.org/2000/svg">
<path d="M32.8125 20.5625C32.8125 22.6345 31.9894 24.6216 30.5243 26.0868C29.0591 27.5519 27.072 28.375 25 28.375C22.928 28.375 20.9409 27.5519 19.4757 26.0868C18.0106 24.6216 17.1875 22.6345 17.1875 20.5625C17.1875 18.4905 18.0106 16.5034 19.4757 15.0382C20.9409 13.5731 22.928 12.75 25 12.75C27.072 12.75 29.0591 13.5731 30.5243 15.0382C31.9894 16.5034 32.8125 18.4905 32.8125 20.5625Z" fill=""/>
<path d="M6.25 6.5C4.5924 6.5 3.00269 7.15848 1.83058 8.33058C0.65848 9.50268 0 11.0924 0 12.75L0 31.5C0 33.1576 0.65848 34.7473 1.83058 35.9194C3.00269 37.0915 4.5924 37.75 6.25 37.75H43.75C45.4076 37.75 46.9973 37.0915 48.1694 35.9194C49.3415 34.7473 50 33.1576 50 31.5V12.75C50 11.0924 49.3415 9.50268 48.1694 8.33058C46.9973 7.15848 45.4076 6.5 43.75 6.5H40.0875C38.43 6.49965 36.8406 5.84093 35.6687 4.66875L33.0813 2.08125C31.9094 0.909066 30.32 0.250354 28.6625 0.25H21.3375C19.68 0.250354 18.0906 0.909066 16.9188 2.08125L14.3313 4.66875C13.1594 5.84093 11.57 6.49965 9.9125 6.5H6.25ZM7.8125 12.75C7.3981 12.75 7.00067 12.5854 6.70765 12.2924C6.41462 11.9993 6.25 11.6019 6.25 11.1875C6.25 10.7731 6.41462 10.3757 6.70765 10.0826C7.00067 9.78962 7.3981 9.625 7.8125 9.625C8.2269 9.625 8.62433 9.78962 8.91735 10.0826C9.21038 10.3757 9.375 10.7731 9.375 11.1875C9.375 11.6019 9.21038 11.9993 8.91735 12.2924C8.62433 12.5854 8.2269 12.75 7.8125 12.75ZM35.9375 20.5625C35.9375 23.4633 34.7852 26.2453 32.734 28.2965C30.6828 30.3477 27.9008 31.5 25 31.5C22.0992 31.5 19.3172 30.3477 17.266 28.2965C15.2148 26.2453 14.0625 23.4633 14.0625 20.5625C14.0625 17.6617 15.2148 14.8797 17.266 12.8285C19.3172 10.7773 22.0992 9.625 25 9.625C27.9008 9.625 30.6828 10.7773 32.734 12.8285C34.7852 14.8797 35.9375 17.6617 35.9375 20.5625Z" fill=""/>
</svg>
