<svg width="15" height="16" viewBox="0 0 15 16" fill="none" xmlns="http://www.w3.org/2000/svg">
<path fill-rule="evenodd" clip-rule="evenodd" d="M5.25987 14.4485L12.096 5.11701C12.4675 4.6138 12.5996 4.03202 12.4758 3.43964C12.3684 2.90111 12.0546 2.38908 11.5841 2.00063L10.4365 1.03834C9.43747 0.199654 8.19905 0.287943 7.48903 1.25022L6.72121 2.30168C6.62213 2.43321 6.6469 2.62743 6.77074 2.73338C6.77074 2.73338 8.71094 4.37543 8.75221 4.41075C8.88431 4.54318 8.98336 4.71974 9.0082 4.93162C9.04947 5.34654 8.77694 5.73499 8.37242 5.78797C8.18252 5.81444 8.00094 5.75264 7.86884 5.63788L5.82954 3.9252C5.73047 3.84662 5.58186 3.8634 5.4993 3.96933L0.652942 10.5906C0.339205 11.0055 0.231879 11.544 0.339205 12.0648L0.958416 14.8987C0.991437 15.0488 1.11528 15.1547 1.26389 15.1547L3.98842 15.1195C4.48378 15.1106 4.94613 14.8723 5.25987 14.4485ZM9.07473 13.5659H13.5175C13.9508 13.5659 14.3034 13.9429 14.3034 14.4064C14.3034 14.8707 13.9508 15.2468 13.5175 15.2468H9.07473C8.64136 15.2468 8.28884 14.8707 8.28884 14.4064C8.28884 13.9429 8.64136 13.5659 9.07473 13.5659Z" fill=""/>
</svg>
