<svg width="24" height="21" viewBox="0 0 24 21" fill="none" xmlns="http://www.w3.org/2000/svg">
<path d="M18.0036 0.708127C19.4161 0.708127 20.7064 1.23416 21.6362 2.18912C22.7118 3.2938 23.2799 4.93969 23.2799 6.94976C23.2799 8.58148 22.6871 10.2881 21.5201 12.0351C20.5739 13.4514 19.2507 14.8818 17.5886 16.2991C15.8506 17.7621 13.9795 19.0645 11.999 20.1897C10.0188 19.0645 8.14799 17.7622 6.41041 16.2991C4.74822 14.8828 3.42505 13.4473 2.4789 12.0351C1.31085 10.2921 0.719117 8.58148 0.719117 6.94976C0.719117 4.93969 1.28722 3.2938 2.36281 2.18912C3.29253 1.23416 4.5818 0.708127 5.9964 0.708127C7.27417 0.713001 8.51551 1.1278 9.5324 1.88969C10.3288 2.48326 10.9516 3.27378 11.3374 4.18098C11.3923 4.30933 11.4845 4.41886 11.6024 4.49587C11.7202 4.57289 11.8586 4.61397 12 4.61397C12.1414 4.61397 12.2798 4.57289 12.3976 4.49587C12.5155 4.41886 12.6077 4.30933 12.6626 4.18098C13.048 3.27353 13.6708 2.48291 14.4676 1.88969C15.4844 1.12767 16.7258 0.712854 18.0036 0.708127ZM18.0036 0C16.5685 0.00516468 15.1743 0.470748 14.032 1.32622C13.136 1.99507 12.4351 2.88489 12 3.90582C11.5638 2.88497 10.8618 1.99551 9.9649 1.32723C8.82377 0.471759 7.43059 0.00582029 5.9964 0V0C4.38661 0 2.91448 0.606966 1.84505 1.69849C0.637959 2.93367 0 4.75456 0 6.94976C0 8.7221 0.631795 10.5642 1.87895 12.4246C2.86106 13.8914 4.22738 15.3755 5.9399 16.8342C7.76058 18.372 9.72775 19.7332 11.8141 20.8988L12 21L12.1859 20.8988C14.2721 19.733 16.2392 18.3718 18.0601 16.8342C19.7726 15.3755 21.142 13.8914 22.1211 12.4246C23.3672 10.5642 24 8.7221 24 6.94976C24 4.75355 23.362 2.93771 22.1508 1.6995C21.0886 0.606966 19.6144 0 18.0036 0Z" fill=""/>
<path d="M5.99435 0.4H5.99558C7.34404 0.405644 8.65325 0.843844 9.72497 1.64728L9.72591 1.64798C10.5666 2.2744 11.2239 3.1076 11.6322 4.063L12.0005 4.92498L12.368 4.06264C12.7751 3.1072 13.4314 2.27369 14.2713 1.64676L14.2718 1.64638C15.3446 0.842896 16.6549 0.40501 18.0043 0.4C19.5129 0.40018 20.8814 0.967679 21.864 1.97834L21.8649 1.97921C22.9845 3.12381 23.6 4.82837 23.6 6.94976C23.6 8.62416 23.0024 10.39 21.7887 12.202L21.7884 12.2025C20.8349 13.6311 19.493 15.0881 17.8012 16.5293C16.0028 18.0478 14.0601 19.3924 12 20.5445C9.93961 19.3926 7.99684 18.0479 6.19861 16.5291C4.50717 15.0883 3.16818 13.6312 2.21133 12.202L2.2112 12.2019C0.996634 10.3901 0.4 8.62426 0.4 6.94976C0.4 4.82891 1.0147 3.11946 2.12899 1.97814C3.11966 0.967159 4.48709 0.4 5.99435 0.4Z" stroke="" stroke-width="0.8"/>
</svg>
