<svg width="10" height="38" viewBox="0 0 10 38" fill="" xmlns="http://www.w3.org/2000/svg">
<path d="M4.99967 29.4167C6.10474 29.4167 7.16455 29.8557 7.94595 30.6371C8.72735 31.4185 9.16634 32.4783 9.16634 33.5833C9.16634 34.6884 8.72735 35.7482 7.94595 36.5296C7.16455 37.311 6.10474 37.75 4.99967 37.75C3.89461 37.75 2.8348 37.311 2.0534 36.5296C1.272 35.7482 0.833008 34.6884 0.833008 33.5833C0.833008 32.4783 1.272 31.4185 2.0534 30.6371C2.8348 29.8557 3.89461 29.4167 4.99967 29.4167ZM4.99967 14.8333C6.10474 14.8333 7.16455 15.2723 7.94595 16.0537C8.72735 16.8351 9.16634 17.8949 9.16634 19C9.16634 20.1051 8.72735 21.1649 7.94595 21.9463C7.16455 22.7277 6.10474 23.1667 4.99967 23.1667C3.89461 23.1667 2.8348 22.7277 2.0534 21.9463C1.272 21.1649 0.833008 20.1051 0.833008 19C0.833008 17.8949 1.272 16.8351 2.0534 16.0537C2.8348 15.2723 3.89461 14.8333 4.99967 14.8333ZM4.99967 0.25C6.10474 0.25 7.16455 0.688987 7.94595 1.47039C8.72735 2.25179 9.16634 3.3116 9.16634 4.41667C9.16634 5.52174 8.72735 6.58154 7.94595 7.36295C7.16455 8.14435 6.10474 8.58333 4.99967 8.58333C3.89461 8.58333 2.8348 8.14435 2.0534 7.36295C1.272 6.58154 0.833008 5.52174 0.833008 4.41667C0.833008 3.3116 1.272 2.25179 2.0534 1.47039C2.8348 0.688987 3.89461 0.25 4.99967 0.25Z" fill=""/>
</svg>
