<svg width="21" height="18" viewBox="0 0 21 18" fill="" xmlns="http://www.w3.org/2000/svg">
<path d="M11.26 0.30007C11.4165 0.188112 11.5997 0.119169 11.7911 0.100126C11.9826 0.0810835 12.1758 0.112607 12.3512 0.191548C12.5267 0.27049 12.6785 0.394088 12.7912 0.550001C12.904 0.705914 12.9739 0.888687 12.994 1.08007L13 1.19407V16.8061C13.0001 16.9985 12.9496 17.1876 12.8538 17.3545C12.7579 17.5213 12.6199 17.6601 12.4536 17.7569C12.2874 17.8538 12.0986 17.9053 11.9061 17.9064C11.7137 17.9075 11.5244 17.8581 11.357 17.7631L11.261 17.7011L4.68 13.0001H2C1.49542 13.0002 1.00943 12.8097 0.639452 12.4666C0.269471 12.1235 0.0428433 11.6532 0.00500011 11.1501L0 11.0001V7.00007C9.25758e-05 6.49567 0.190772 6.00992 0.533837 5.64016C0.876903 5.27039 1.34702 5.0439 1.85 5.00607L2 5.00007H4.68L11.26 0.30007ZM15.586 6.17207L17 7.58607L18.414 6.17207C18.5062 6.07656 18.6166 6.00038 18.7386 5.94797C18.8606 5.89556 18.9918 5.86797 19.1246 5.86682C19.2574 5.86567 19.3891 5.89097 19.512 5.94125C19.6348 5.99153 19.7465 6.06578 19.8404 6.15968C19.9343 6.25357 20.0085 6.36522 20.0588 6.48812C20.1091 6.61101 20.1344 6.74269 20.1333 6.87547C20.1321 7.00825 20.1045 7.13947 20.0521 7.26147C19.9997 7.38348 19.9235 7.49382 19.828 7.58607L18.414 9.00007L19.828 10.4141C20.0156 10.6016 20.1211 10.8559 20.1212 11.1212C20.1213 11.3865 20.016 11.6409 19.8285 11.8286C19.641 12.0162 19.3866 12.1217 19.1214 12.1218C18.8561 12.1219 18.6016 12.0166 18.414 11.8291L17 10.4141L15.586 11.8291C15.3984 12.0166 15.1439 12.1219 14.8786 12.1218C14.6134 12.1217 14.359 12.0162 14.1715 11.8286C13.984 11.6409 13.8787 11.3865 13.8788 11.1212C13.8789 10.8559 13.9844 10.6016 14.172 10.4141L15.586 9.00007L14.172 7.58607C14.0765 7.49382 14.0003 7.38348 13.9479 7.26147C13.8955 7.13947 13.8679 7.00825 13.8667 6.87547C13.8656 6.74269 13.8909 6.61101 13.9412 6.48812C13.9915 6.36522 14.0657 6.25357 14.1596 6.15968C14.2535 6.06578 14.3652 5.99153 14.488 5.94125C14.6109 5.89097 14.7426 5.86567 14.8754 5.86682C15.0082 5.86797 15.1394 5.89556 15.2614 5.94797C15.3834 6.00038 15.4938 6.07656 15.586 6.17207Z" fill=""/>
</svg>
