<svg width="33" height="25" viewBox="0 0 33 25" fill="" xmlns="http://www.w3.org/2000/svg">
<path fill-rule="evenodd" clip-rule="evenodd" d="M16.7366 1.49545C16.8412 1.33494 16.9763 1.1966 17.1343 1.08832C17.2923 0.980047 17.4701 0.903965 17.6576 0.864421C17.845 0.824877 18.0384 0.822645 18.2267 0.857854C18.415 0.893062 18.5945 0.965022 18.7549 1.06962L30.4508 8.68504C31.0922 9.09376 31.6202 9.65759 31.9859 10.3244C32.3517 10.9912 32.5435 11.7395 32.5435 12.5C32.5435 13.2606 32.3517 14.0089 31.9859 14.6757C31.6202 15.3425 31.0922 15.9063 30.4508 16.315L18.7549 23.9305C18.4308 24.1416 18.0361 24.2154 17.6576 24.1355C17.2791 24.0557 16.9478 23.8287 16.7366 23.5046C16.5254 23.1805 16.4517 22.7858 16.5315 22.4073C16.6114 22.0288 16.8383 21.6975 17.1624 21.4863L28.8714 13.8621C29.8777 13.2175 29.8777 11.7825 28.8714 11.138L28.8627 11.1321L17.1624 3.51379C17.0019 3.40925 16.8636 3.27411 16.7553 3.11609C16.647 2.95807 16.571 2.78027 16.5314 2.59284C16.4919 2.40541 16.4896 2.21202 16.5248 2.02373C16.5601 1.83544 16.632 1.65593 16.7366 1.49545Z" fill=""/>
<path fill-rule="evenodd" clip-rule="evenodd" d="M0.458008 5.2052C0.458008 1.69353 4.23509 -0.260639 7.08759 1.48061L7.09634 1.48499L18.8622 8.78103L18.8986 8.80436C21.5353 10.5485 21.5353 14.4539 18.8986 16.1981L18.8622 16.2214L7.08905 23.5204C4.23655 25.2602 0.458008 23.306 0.458008 19.7944V5.2052ZM5.56509 3.96707C5.3468 3.82961 5.09538 3.7538 4.83749 3.74768C4.5796 3.74155 4.32486 3.80534 4.10029 3.93228C3.87572 4.05921 3.6897 4.24456 3.56195 4.46867C3.4342 4.69278 3.36948 4.94729 3.37467 5.2052V19.7944C3.36948 20.0523 3.4342 20.3068 3.56195 20.5309C3.6897 20.755 3.87572 20.9403 4.10029 21.0673C4.32486 21.1942 4.5796 21.258 4.83749 21.2519C5.09538 21.2458 5.3468 21.1699 5.56509 21.0325L17.3032 13.7539C17.5054 13.6132 17.6705 13.4256 17.7845 13.2072C17.8986 12.9888 17.9581 12.7461 17.9581 12.4998C17.9581 12.2534 17.8986 12.0107 17.7845 11.7923C17.6705 11.574 17.5054 11.3864 17.3032 11.2456L5.56509 3.96707Z" fill=""/>
</svg>
