<svg width="36" height="38" viewBox="0 0 36 38" fill="" xmlns="http://www.w3.org/2000/svg">
<path d="M35.1875 3.375V34.625C35.1875 35.4538 34.8583 36.2487 34.2722 36.8347C33.6862 37.4208 32.8913 37.75 32.0625 37.75H24.25C23.4212 37.75 22.6263 37.4208 22.0403 36.8347C21.4542 36.2487 21.125 35.4538 21.125 34.625V3.375C21.125 2.5462 21.4542 1.75134 22.0403 1.16529C22.6263 0.57924 23.4212 0.25 24.25 0.25H32.0625C32.8913 0.25 33.6862 0.57924 34.2722 1.16529C34.8583 1.75134 35.1875 2.5462 35.1875 3.375ZM11.75 0.25H3.9375C3.1087 0.25 2.31384 0.57924 1.72779 1.16529C1.14174 1.75134 0.8125 2.5462 0.8125 3.375V34.625C0.8125 35.4538 1.14174 36.2487 1.72779 36.8347C2.31384 37.4208 3.1087 37.75 3.9375 37.75H11.75C12.5788 37.75 13.3737 37.4208 13.9597 36.8347C14.5458 36.2487 14.875 35.4538 14.875 34.625V3.375C14.875 2.5462 14.5458 1.75134 13.9597 1.16529C13.3737 0.57924 12.5788 0.25 11.75 0.25Z" fill=""/>
</svg>
