<svg width="60" height="60" viewBox="0 0 60 60" fill="" xmlns="http://www.w3.org/2000/svg">
<path fill-rule="evenodd" clip-rule="evenodd" d="M30 55.5C33.3487 55.5 36.6646 54.8404 39.7584 53.5589C42.8522 52.2774 45.6633 50.3991 48.0312 48.0312C50.3991 45.6633 52.2774 42.8522 53.5589 39.7584C54.8404 36.6646 55.5 33.3487 55.5 30C55.5 26.6513 54.8404 23.3354 53.5589 20.2416C52.2774 17.1478 50.3991 14.3367 48.0312 11.9688C45.6633 9.60088 42.8522 7.72257 39.7584 6.44107C36.6646 5.15958 33.3487 4.5 30 4.5C23.237 4.5 16.751 7.1866 11.9688 11.9688C7.1866 16.751 4.5 23.237 4.5 30C4.5 36.763 7.1866 43.249 11.9688 48.0312C16.751 52.8134 23.237 55.5 30 55.5ZM30 60C46.569 60 60 46.569 60 30C60 13.431 46.569 0 30 0C13.431 0 0 13.431 0 30C0 46.569 13.431 60 30 60Z" fill=""/>
<path fill-rule="evenodd" clip-rule="evenodd" d="M24 39C23.2044 39 22.4413 38.6839 21.8787 38.1213C21.3161 37.5587 21 36.7956 21 36V24C21 23.2044 21.3161 22.4413 21.8787 21.8787C22.4413 21.3161 23.2044 21 24 21C24.7956 21 25.5587 21.3161 26.1213 21.8787C26.6839 22.4413 27 23.2044 27 24V36C27 36.7956 26.6839 37.5587 26.1213 38.1213C25.5587 38.6839 24.7956 39 24 39ZM36 39C35.2044 39 34.4413 38.6839 33.8787 38.1213C33.3161 37.5587 33 36.7956 33 36V24C33 23.2044 33.3161 22.4413 33.8787 21.8787C34.4413 21.3161 35.2044 21 36 21C36.7956 21 37.5587 21.3161 38.1213 21.8787C38.6839 22.4413 39 23.2044 39 24V36C39 36.7956 38.6839 37.5587 38.1213 38.1213C37.5587 38.6839 36.7956 39 36 39Z" fill=""/>
</svg>
