<svg width="60" height="60" viewBox="0 0 60 60" fill="" xmlns="http://www.w3.org/2000/svg">
<path fill-rule="evenodd" clip-rule="evenodd" d="M30 55.5C33.3487 55.5 36.6646 54.8404 39.7584 53.5589C42.8522 52.2774 45.6633 50.3991 48.0312 48.0312C50.3991 45.6633 52.2774 42.8522 53.5589 39.7584C54.8404 36.6646 55.5 33.3487 55.5 30C55.5 26.6513 54.8404 23.3354 53.5589 20.2416C52.2774 17.1478 50.3991 14.3367 48.0312 11.9688C45.6633 9.60088 42.8522 7.72257 39.7584 6.44107C36.6646 5.15958 33.3487 4.5 30 4.5C23.237 4.5 16.751 7.1866 11.9688 11.9688C7.1866 16.751 4.5 23.237 4.5 30C4.5 36.763 7.1866 43.249 11.9688 48.0312C16.751 52.8134 23.237 55.5 30 55.5ZM30 60C46.569 60 60 46.569 60 30C60 13.431 46.569 0 30 0C13.431 0 0 13.431 0 30C0 46.569 13.431 60 30 60Z" fill=""/>
<path d="M38.256 27.5039C38.6669 27.7779 39.0038 28.149 39.2368 28.5844C39.4698 29.0199 39.5917 29.5061 39.5917 29.9999C39.5917 30.4937 39.4698 30.9799 39.2368 31.4153C39.0038 31.8508 38.6669 32.2219 38.256 32.4959L28.665 38.8919C28.2132 39.1933 27.688 39.3665 27.1455 39.3928C26.6031 39.4192 26.0636 39.2977 25.5847 39.0415C25.1058 38.7853 24.7055 38.4039 24.4264 37.9379C24.1473 37.472 23.9999 36.939 24 36.3959V23.6069C23.9999 23.0638 24.1473 22.5308 24.4264 22.0649C24.7055 21.5989 25.1058 21.2175 25.5847 20.9613C26.0636 20.705 26.6031 20.5836 27.1455 20.61C27.688 20.6363 28.2132 20.8095 28.665 21.1109L38.256 27.5039Z" fill=""/>
</svg>
