<svg width="33" height="25" viewBox="0 0 33 25" fill="" xmlns="http://www.w3.org/2000/svg">
<path fill-rule="evenodd" clip-rule="evenodd" d="M16.2634 23.5045C16.1588 23.6651 16.0237 23.8034 15.8657 23.9117C15.7077 24.02 15.5299 24.096 15.3424 24.1356C15.155 24.1751 14.9616 24.1774 14.7733 24.1421C14.585 24.1069 14.4055 24.035 14.2451 23.9304L2.54922 16.315C1.90783 15.9062 1.37984 15.3424 1.01406 14.6756C0.648288 14.0088 0.456537 13.2605 0.456537 12.5C0.456537 11.7394 0.648288 10.9911 1.01406 10.3243C1.37984 9.65751 1.90783 9.09368 2.54922 8.68496L14.2451 1.06955C14.5692 0.858368 14.9639 0.784592 15.3424 0.86445C15.7209 0.944311 16.0522 1.17126 16.2634 1.49538C16.4746 1.8195 16.5483 2.21423 16.4685 2.59274C16.3886 2.97125 16.1617 3.30253 15.8376 3.51371L4.1286 11.1379C3.12234 11.7825 3.12234 13.2175 4.1286 13.862L4.13735 13.8679L15.8376 21.4862C15.9981 21.5908 16.1364 21.7259 16.2447 21.8839C16.353 22.0419 16.429 22.2197 16.4686 22.4072C16.5081 22.5946 16.5104 22.788 16.4752 22.9763C16.4399 23.1646 16.368 23.3441 16.2634 23.5045Z" fill=""/>
<path fill-rule="evenodd" clip-rule="evenodd" d="M32.542 19.7948C32.542 23.3065 28.7649 25.2606 25.9124 23.5194L25.9037 23.515L14.1378 16.219L14.1014 16.1956C11.4647 14.4515 11.4647 10.5461 14.1014 8.80189L14.1378 8.77855L25.9109 1.4796C28.7635 -0.260195 32.542 1.69397 32.542 5.20564V19.7948ZM27.4349 21.0329C27.6532 21.1704 27.9046 21.2462 28.1625 21.2523C28.4204 21.2584 28.6751 21.1947 28.8997 21.0677C29.1243 20.9408 29.3103 20.7554 29.4381 20.5313C29.5658 20.3072 29.6305 20.0527 29.6253 19.7948L29.6253 5.20564C29.6305 4.94773 29.5658 4.69322 29.4381 4.46911C29.3103 4.24501 29.1243 4.05965 28.8997 3.93272C28.6751 3.80578 28.4204 3.74199 28.1625 3.74812C27.9046 3.75424 27.6532 3.83006 27.4349 3.96751L15.6968 11.2461C15.4946 11.3868 15.3295 11.5744 15.2155 11.7928C15.1014 12.0112 15.0419 12.2539 15.0419 12.5002C15.0419 12.7466 15.1014 12.9893 15.2155 13.2077C15.3295 13.426 15.4946 13.6136 15.6968 13.7544L27.4349 21.0329Z" fill=""/>
</svg>
