<svg width="18" height="14" viewBox="0 0 18 14" fill="" xmlns="http://www.w3.org/2000/svg">
<path d="M17.5672 10.9328C17.6253 10.9909 17.6714 11.0598 17.7029 11.1357C17.7343 11.2115 17.7505 11.2929 17.7505 11.375C17.7505 11.4571 17.7343 11.5385 17.7029 11.6143C17.6714 11.6902 17.6253 11.7591 17.5672 11.8172L15.6922 13.6922C15.6048 13.7797 15.4934 13.8393 15.3721 13.8635C15.2508 13.8876 15.125 13.8752 15.0108 13.8279C14.8965 13.7805 14.7988 13.7004 14.7302 13.5975C14.6615 13.4946 14.6249 13.3737 14.625 13.25V12C13.7423 11.9876 12.8749 11.7681 12.0926 11.3591C11.3103 10.9501 10.635 10.3631 10.1211 9.64532L6.86172 5.08282C6.45657 4.51646 5.92231 4.0548 5.30319 3.73607C4.68407 3.41734 3.99791 3.25071 3.30156 3.25H1.5C1.33424 3.25 1.17527 3.18416 1.05806 3.06695C0.940848 2.94974 0.875 2.79076 0.875 2.625C0.875 2.45924 0.940848 2.30027 1.05806 2.18306C1.17527 2.06585 1.33424 2 1.5 2H3.30156C4.19679 2.00075 5.07895 2.2148 5.87497 2.62442C6.67098 3.03405 7.35793 3.62745 7.87891 4.35547L11.1383 8.91797C11.5361 9.4743 12.0587 9.92976 12.6642 10.2479C13.2696 10.566 13.9412 10.738 14.625 10.75V9.5C14.6249 9.37632 14.6615 9.25539 14.7302 9.15252C14.7988 9.04964 14.8965 8.96946 15.0108 8.92212C15.125 8.87477 15.2508 8.86239 15.3721 8.88655C15.4934 8.9107 15.6048 8.97031 15.6922 9.05782L17.5672 10.9328ZM10.1719 5.35938C10.2387 5.40709 10.3142 5.44117 10.3942 5.45969C10.4741 5.47821 10.5569 5.48079 10.6379 5.4673C10.7189 5.45381 10.7964 5.4245 10.866 5.38105C10.9357 5.3376 10.996 5.28086 11.0438 5.21407L11.1375 5.0836C11.5353 4.52687 12.0579 4.07105 12.6635 3.75264C13.2691 3.43423 13.9409 3.26209 14.625 3.25V4.5C14.6249 4.62369 14.6615 4.74462 14.7302 4.84749C14.7988 4.95036 14.8965 5.03055 15.0108 5.07789C15.125 5.12524 15.2508 5.13762 15.3721 5.11346C15.4934 5.0893 15.6048 5.0297 15.6922 4.94219L17.5672 3.06719C17.6253 3.00915 17.6714 2.94022 17.7029 2.86434C17.7343 2.78847 17.7505 2.70714 17.7505 2.625C17.7505 2.54287 17.7343 2.46154 17.7029 2.38567C17.6714 2.30979 17.6253 2.24086 17.5672 2.18282L15.6922 0.307816C15.6048 0.220309 15.4934 0.160705 15.3721 0.136548C15.2508 0.112392 15.125 0.12477 15.0108 0.172115C14.8965 0.21946 14.7988 0.299644 14.7302 0.402515C14.6615 0.505386 14.6249 0.626319 14.625 0.750004V2C13.7423 2.0124 12.8749 2.23194 12.0926 2.64093C11.3103 3.04993 10.635 3.63694 10.1211 4.35469L10.0273 4.48516C9.97923 4.55198 9.9448 4.62765 9.92602 4.70782C9.90724 4.78798 9.90448 4.87107 9.91791 4.95231C9.93134 5.03354 9.96069 5.11133 10.0043 5.18118C10.0479 5.25104 10.1048 5.3116 10.1719 5.35938ZM7.82813 8.64063C7.76134 8.59292 7.6858 8.55884 7.60584 8.54032C7.52588 8.5218 7.44305 8.51922 7.36209 8.53271C7.28113 8.5462 7.20362 8.57551 7.13399 8.61896C7.06435 8.66241 7.00396 8.71915 6.95625 8.78594L6.8625 8.91641C6.45736 9.48301 5.92301 9.9449 5.30374 10.2638C4.68447 10.5826 3.99811 10.7493 3.30156 10.75H1.5C1.33424 10.75 1.17527 10.8159 1.05806 10.9331C0.940848 11.0503 0.875 11.2092 0.875 11.375C0.875 11.5408 0.940848 11.6997 1.05806 11.8169C1.17527 11.9342 1.33424 12 1.5 12H3.30156C4.19679 11.9993 5.07895 11.7852 5.87497 11.3756C6.67098 10.966 7.35793 10.3726 7.87891 9.64454L7.97266 9.51407C8.02065 9.44727 8.05498 9.37166 8.0737 9.29157C8.09241 9.21148 8.09513 9.12849 8.0817 9.04735C8.06827 8.9662 8.03896 8.88851 7.99545 8.81871C7.95194 8.74892 7.89507 8.6884 7.82813 8.64063Z" fill=""/>
</svg>
