<svg width="40" height="33" viewBox="0 0 40 33" fill="none" xmlns="http://www.w3.org/2000/svg">
<path fill-rule="evenodd" clip-rule="evenodd" d="M-4.16602 2.5C-4.16602 2.0856 -4.0014 1.68817 -3.70837 1.39515C-3.41534 1.10212 -3.01792 0.9375 -2.60352 0.9375H34.8965C35.3109 0.9375 35.7083 1.10212 36.0013 1.39515C36.2944 1.68817 36.459 2.0856 36.459 2.5C36.459 2.9144 36.2944 3.31183 36.0013 3.60485C35.7083 3.89788 35.3109 4.0625 34.8965 4.0625H-2.60352C-3.01792 4.0625 -3.41534 3.89788 -3.70837 3.60485C-4.0014 3.31183 -4.16602 2.9144 -4.16602 2.5ZM-4.16602 10.8333C-4.16602 10.4189 -4.0014 10.0215 -3.70837 9.72848C-3.41534 9.43545 -3.01792 9.27083 -2.60352 9.27083H34.8965C35.3109 9.27083 35.7083 9.43545 36.0013 9.72848C36.2944 10.0215 36.459 10.4189 36.459 10.8333C36.459 11.2477 36.2944 11.6452 36.0013 11.9382C35.7083 12.2312 35.3109 12.3958 34.8965 12.3958H-2.60352C-3.01792 12.3958 -3.41534 12.2312 -3.70837 11.9382C-4.0014 11.6452 -4.16602 11.2477 -4.16602 10.8333ZM-4.16602 19.1667C-4.16602 18.7523 -4.0014 18.3548 -3.70837 18.0618C-3.41534 17.7688 -3.01792 17.6042 -2.60352 17.6042H14.0632C14.4776 17.6042 14.875 17.7688 15.168 18.0618C15.461 18.3548 15.6257 18.7523 15.6257 19.1667C15.6257 19.5811 15.461 19.9785 15.168 20.2715C14.875 20.5645 14.4776 20.7292 14.0632 20.7292H-2.60352C-3.01792 20.7292 -3.41534 20.5645 -3.70837 20.2715C-4.0014 19.9785 -4.16602 19.5811 -4.16602 19.1667ZM-4.16602 27.5C-4.16602 27.0856 -4.0014 26.6882 -3.70837 26.3951C-3.41534 26.1021 -3.01792 25.9375 -2.60352 25.9375H14.0632C14.4776 25.9375 14.875 26.1021 15.168 26.3951C15.461 26.6882 15.6257 27.0856 15.6257 27.5C15.6257 27.9144 15.461 28.3118 15.168 28.6049C14.875 28.8979 14.4776 29.0625 14.0632 29.0625H-2.60352C-3.01792 29.0625 -3.41534 28.8979 -3.70837 28.6049C-4.0014 28.3118 -4.16602 27.9144 -4.16602 27.5Z" fill=""/>
<path d="M33.5938 19.6111C37.0396 21.6007 38.7604 22.5966 39.0146 24.0299C39.0779 24.3889 39.0779 24.7563 39.0146 25.1153C38.7625 26.5528 37.0396 27.5466 33.5938 29.5361C30.1479 31.5236 28.4271 32.5195 27.0563 32.0216C26.7139 31.8972 26.3959 31.7139 26.1167 31.4799C25 30.5424 25 28.5528 25 24.5736C25 20.5945 25 18.607 26.1167 17.6695C26.3958 17.4341 26.7146 17.2528 27.0563 17.1278C28.425 16.6278 30.1479 17.6236 33.5938 19.6111Z" fill=""/>
</svg>
