<svg width="10" height="10" viewBox="0 0 10 10" fill="none" xmlns="http://www.w3.org/2000/svg">
<path d="M3.94737 1.625V1.75H6.05263V1.625C6.05263 1.35978 5.94173 1.10543 5.74432 0.917893C5.54692 0.730357 5.27918 0.625 5 0.625C4.72082 0.625 4.45308 0.730357 4.25568 0.917893C4.05827 1.10543 3.94737 1.35978 3.94737 1.625ZM3.28947 1.75V1.625C3.28947 1.19402 3.46969 0.780698 3.79048 0.475951C4.11126 0.171205 4.54634 0 5 0C5.45366 0 5.88874 0.171205 6.20952 0.475951C6.53031 0.780698 6.71053 1.19402 6.71053 1.625V1.75H9.67105C9.7583 1.75 9.84196 1.78292 9.90365 1.84153C9.96534 1.90013 10 1.97962 10 2.0625C10 2.14538 9.96534 2.22487 9.90365 2.28347C9.84196 2.34208 9.7583 2.375 9.67105 2.375H8.90342L8.37711 8.339C8.33712 8.7919 8.11948 9.21401 7.76732 9.52165C7.41517 9.8293 6.95421 10 6.47579 10H3.52421C3.04584 9.99996 2.58494 9.8292 2.23284 9.52157C1.88074 9.21393 1.66314 8.79186 1.62316 8.339L1.09684 2.375H0.328947C0.241705 2.375 0.158036 2.34208 0.0963465 2.28347C0.0346569 2.22487 0 2.14538 0 2.0625C0 1.97962 0.0346569 1.90013 0.0963465 1.84153C0.158036 1.78292 0.241705 1.75 0.328947 1.75H3.28947ZM2.27868 8.28675C2.30488 8.58346 2.44745 8.85999 2.67813 9.06154C2.90882 9.2631 3.21079 9.37498 3.52421 9.375H6.47579C6.78925 9.37504 7.09129 9.26319 7.32203 9.06163C7.55278 8.86006 7.69538 8.5835 7.72158 8.28675L8.24316 2.375H1.75684L2.27868 8.28675ZM4.34211 4.0625C4.34211 4.02146 4.3336 3.98083 4.31707 3.94291C4.30053 3.905 4.2763 3.87055 4.24576 3.84153C4.21521 3.81251 4.17895 3.78949 4.13904 3.77379C4.09913 3.75808 4.05636 3.75 4.01316 3.75C3.96996 3.75 3.92719 3.75808 3.88728 3.77379C3.84737 3.78949 3.8111 3.81251 3.78056 3.84153C3.75001 3.87055 3.72578 3.905 3.70925 3.94291C3.69272 3.98083 3.68421 4.02146 3.68421 4.0625V7.6875C3.68421 7.72854 3.69272 7.76917 3.70925 7.80709C3.72578 7.845 3.75001 7.87945 3.78056 7.90847C3.8111 7.93749 3.84737 7.96051 3.88728 7.97621C3.92719 7.99192 3.96996 8 4.01316 8C4.05636 8 4.09913 7.99192 4.13904 7.97621C4.17895 7.96051 4.21521 7.93749 4.24576 7.90847C4.2763 7.87945 4.30053 7.845 4.31707 7.80709C4.3336 7.76917 4.34211 7.72854 4.34211 7.6875V4.0625ZM5.98684 3.75C6.16842 3.75 6.31579 3.89 6.31579 4.0625V7.6875C6.31579 7.77038 6.28113 7.84987 6.21944 7.90847C6.15775 7.96708 6.07408 8 5.98684 8C5.8996 8 5.81593 7.96708 5.75424 7.90847C5.69255 7.84987 5.6579 7.77038 5.6579 7.6875V4.0625C5.6579 3.89 5.80526 3.75 5.98684 3.75Z" fill="#FF0000"/>
</svg>
