<svg width="24" height="18" viewBox="0 0 24 18" fill="" xmlns="http://www.w3.org/2000/svg">
<path d="M11.3445 0.103444C11.54 0.19322 11.7056 0.337164 11.8218 0.518212C11.938 0.699261 11.9998 0.909824 12 1.12494V16.8749C11.9995 17.0899 11.9376 17.3002 11.8214 17.481C11.7053 17.6619 11.5399 17.8058 11.3446 17.8957C11.1494 17.9855 10.9325 18.0177 10.7196 17.9883C10.5067 17.959 10.3066 17.8693 10.143 17.7299L5.208 13.4999H2.625C1.92881 13.4999 1.26113 13.2234 0.768845 12.7311C0.276562 12.2388 0 11.5711 0 10.8749L0 7.12494C0 5.67594 1.176 4.49994 2.625 4.49994H5.2095L10.143 0.269944C10.3064 0.130298 10.5065 0.0404013 10.7194 0.0108937C10.9323 -0.018614 11.1493 0.0135033 11.3445 0.103444ZM9.75 3.56994L6.357 6.47844C6.15337 6.65366 5.89363 6.74999 5.625 6.74994H2.625C2.52554 6.74994 2.43016 6.78945 2.35984 6.85978C2.28951 6.93011 2.25 7.02549 2.25 7.12494V10.8749C2.25 11.0819 2.418 11.2499 2.625 11.2499H5.625C5.8935 11.2499 6.153 11.3459 6.357 11.5199L9.75 14.4299V3.56994ZM18.894 0.512944C19.1049 0.302268 19.3909 0.183934 19.689 0.183934C19.9871 0.183934 20.2731 0.302268 20.484 0.512944C21.5984 1.62726 22.4823 2.95015 23.0854 4.4061C23.6885 5.86205 23.9989 7.42253 23.9989 8.99844C23.9989 10.5744 23.6885 12.1348 23.0854 13.5908C22.4823 15.0467 21.5984 16.3696 20.484 17.4839C20.2706 17.6826 19.9885 17.7907 19.6971 17.7857C19.4056 17.7806 19.1274 17.6628 18.921 17.4569C18.7151 17.2505 18.5973 16.9724 18.5923 16.6809C18.5872 16.3894 18.6954 16.1073 18.894 15.8939C19.7995 14.9886 20.5178 13.9137 21.0079 12.7307C21.4979 11.5476 21.7502 10.2797 21.7502 8.99919C21.7502 7.7187 21.4979 6.45074 21.0079 5.26773C20.5178 4.08472 19.7995 3.00983 18.894 2.10444C18.6833 1.89351 18.565 1.60757 18.565 1.30944C18.565 1.01132 18.6833 0.723882 18.894 0.512944ZM17.304 3.69444L17.3025 3.69594C18.7085 5.1024 19.4984 7.00971 19.4984 8.99844C19.4984 10.9872 18.7085 12.8945 17.3025 14.3009C17.165 14.449 16.9901 14.5573 16.7962 14.6143C16.6023 14.6713 16.3967 14.675 16.2009 14.6249C16.0051 14.5749 15.8264 14.4729 15.6837 14.3299C15.541 14.1868 15.4396 14.0079 15.39 13.8119C15.3399 13.6164 15.3434 13.4109 15.4001 13.2172C15.4569 13.0234 15.5648 12.8486 15.7125 12.7109C16.2001 12.2234 16.5868 11.6447 16.8507 11.0077C17.1146 10.3707 17.2504 9.68793 17.2504 8.99844C17.2504 8.30896 17.1146 7.62623 16.8507 6.98923C16.5868 6.35224 16.2001 5.77346 15.7125 5.28594C15.5015 5.0749 15.3829 4.78866 15.3829 4.49019C15.3829 4.19173 15.5015 3.90549 15.7125 3.69444C15.9235 3.4834 16.2098 3.36483 16.5082 3.36483C16.8067 3.36483 17.093 3.4834 17.304 3.69444Z" fill=""/>
</svg>
